<?xml version="1.0" encoding="utf-8"?>
<!-- Generator: Adobe Illustrator 27.0.1, SVG Export Plug-In . SVG Version: 6.00 Build 0)  -->
<svg version="1.1" id="_Слой_1" xmlns="http://www.w3.org/2000/svg" xmlns:xlink="http://www.w3.org/1999/xlink" x="0px"
	 y="0px" viewBox="0 0 27.6 21" style="enable-background:new 0 0 27.6 21;" xml:space="preserve">
<style type="text/css">
	.st0{fill-rule:evenodd;clip-rule:evenodd;fill:#CCCCCC;}
</style>
<g>
	<path class="st0" d="M19.4,14l2.9,2.9c0,0,0,0,0.1,0.1h3.7c0.8,0,1.5-0.7,1.5-1.5S26.9,14,26.1,14C26.1,14,19.4,14,19.4,14z
		 M19.2,5c-0.4-1.1-1-2.1-1.8-3H26c0.8,0,1.5,0.7,1.5,1.5S26.8,5,26,5H19.2L19.2,5z M19.9,9c0-0.3,0-0.7,0-1h6.2
		c0.8,0,1.5,0.7,1.5,1.5S26.9,11,26.1,11h-6.3c0.1-0.7,0.2-1.3,0.2-2H19.9z"/>
	<path class="st0" d="M3.5,9C3.5,6,6,3.5,9,3.5S14.5,6,14.5,9S12,14.5,9,14.5S3.5,12,3.5,9z M0,9c0-5,4-9,9-9s9,4,9,9
		s-0.3,2.6-0.8,3.8c-0.3,0.7-0.3,1.6,0.3,2.1l3.4,3.4c0.6,0.6,0.6,1.6,0,2.2s-1.6,0.6-2.2,0l-3.3-3.3c-0.6-0.6-1.5-0.6-2.2-0.2
		c-1.2,0.6-2.6,1-4.1,1C4,18,0,13.9,0,9z"/>
</g>
</svg>
